<?xml version="1.0" encoding="iso-8859-1"?>
<!-- Generator: Adobe Illustrator 21.0.2, SVG Export Plug-In . SVG Version: 6.00 Build 0)  -->
<svg version="1.1" id="Layer_1" xmlns="http://www.w3.org/2000/svg" xmlns:xlink="http://www.w3.org/1999/xlink" x="0px" y="0px"
	 viewBox="0 0 79.502 143.258" style="enable-background:new 0 0 79.502 143.258;" xml:space="preserve">
<path d="M79.464,23.843c-0.013-0.025-0.03-0.057-0.052-0.094c-0.014-0.023-0.025-0.045-0.042-0.072
	c-0.025-0.043-0.056-0.09-0.09-0.143c-0.02-0.031-0.034-0.055-0.057-0.088c-0.055-0.082-0.117-0.17-0.189-0.268
	c-0.032-0.043-0.07-0.09-0.105-0.135c-0.05-0.065-0.101-0.127-0.158-0.195c-0.048-0.059-0.098-0.115-0.151-0.176
	c-0.058-0.066-0.121-0.133-0.186-0.203c-0.062-0.064-0.12-0.129-0.188-0.195c-0.088-0.088-0.186-0.18-0.284-0.271
	c-0.11-0.102-0.229-0.207-0.355-0.312c-0.09-0.076-0.179-0.152-0.276-0.23c-0.099-0.078-0.203-0.156-0.31-0.234
	c-0.095-0.07-0.192-0.141-0.294-0.211c-0.118-0.082-0.238-0.164-0.365-0.248c-0.105-0.066-0.22-0.135-0.332-0.203
	c-0.241-0.147-0.499-0.291-0.772-0.434c-0.125-0.066-0.245-0.131-0.377-0.195c-0.167-0.082-0.346-0.16-0.523-0.24
	c-0.134-0.058-0.269-0.117-0.409-0.176c-0.19-0.08-0.387-0.156-0.59-0.233c-0.046-0.017-0.087-0.035-0.134-0.053
	c0.001,0.002-0.001,0.004,0,0.006c-1.468-0.535-3.24-0.978-5.408-1.219c-1.265,0.635-1.475,1.053-1.475,1.053l0.21-0.418
	c0,0-2.828,0.281-4.978,1.238c0.006-0.004,0.011-0.01,0.016-0.014c-0.068,0.029-0.134,0.062-0.201,0.096
	c-0.024,0.012-0.049,0.021-0.072,0.033c-0.185,0.09-0.364,0.184-0.534,0.285c-0.006,0.004-0.012,0.008-0.018,0.012
	c-0.156,0.094-0.301,0.193-0.439,0.295c-0.03,0.023-0.061,0.047-0.09,0.068c-0.142,0.113-0.276,0.229-0.393,0.351
	c0,0-0.001,0-0.001,0.002c-0.114,0.119-0.21,0.246-0.297,0.377c-0.02,0.031-0.039,0.061-0.058,0.092
	c-0.081,0.137-0.151,0.277-0.199,0.426c-0.316-0.631-0.316-0.631-0.316-0.631l-2.549,1.727l0.232-0.883l-1.159-0.107l1.159-0.424
	l1.79-5.791l-1.159-0.525l1.663,0.221c0,0,0.111-0.221,0.309-0.582c0.588-1.076,1.953-3.404,3.509-4.904
	c-0.771-0.771-0.771-0.771-0.771-0.771l1.004,0.57c0,0,2.502-3.517,3.801-4.258c-0.527-1.123-0.527-1.123-0.527-1.123l0.842,0.773
	c0,0,2.212-4.736,4.388-5.195c0,0-3.105-0.209-9.371,1.055c0.052,0.842,0.052,0.842,0.052,0.842l-0.525-0.367
	c0,0-4.442,2.086-5.844,3.842c-0.101,0.244-0.184,0.459-0.257,0.656c0.001-0.002,0.001-0.006,0.002-0.008
	c-0.006,0.018-0.01,0.029-0.016,0.045c-0.063,0.172-0.117,0.326-0.162,0.459c-0.003,0.008-0.005,0.014-0.007,0.022
	c-0.046,0.137-0.082,0.252-0.109,0.346c-0.001,0.004-0.002,0.008-0.003,0.012c-0.028,0.096-0.047,0.166-0.06,0.215
	c-0.003,0.01-0.003,0.01-0.005,0.018C55.186,7.185,55.18,7.21,55.18,7.21l-0.492-1.125c0,0-2.104,1.756-3.58,5.125
	c0.422,1.125,0.351,1.475,0.351,1.475l-0.842-0.982c0,0-0.409,0.478-0.809,1.633c-0.001-0.002-0.001-0.004-0.001-0.006
	c-0.023,0.068-0.046,0.146-0.069,0.219c-0.019,0.057-0.036,0.111-0.055,0.172c-0.026,0.086-0.051,0.174-0.076,0.266
	c-0.022,0.08-0.044,0.164-0.065,0.25c-0.022,0.088-0.045,0.174-0.066,0.267c-0.039,0.168-0.076,0.344-0.111,0.529
	c-0.016,0.08-0.028,0.164-0.043,0.246c-0.024,0.137-0.047,0.277-0.068,0.426c-0.013,0.09-0.025,0.182-0.038,0.275
	c-0.022,0.178-0.043,0.363-0.061,0.555c-0.007,0.066-0.015,0.129-0.021,0.195c-0.023,0.256-0.039,0.525-0.053,0.805
	c-0.004,0.084-0.007,0.172-0.01,0.258c-0.004,0.123-0.011,0.242-0.013,0.371c-1.4-2.6-3.355-5.408-3.355-5.408l-1.753,0.141
	c0,0,0,0,0.491-0.631c-0.845-1.473-1.827-2.176-1.827-2.176l-1.052,0.277c0,0,0,0,0.701-1.121c-3.299-2.455-5.615-2.809-5.615-2.809
	L35.452,7.56c0,0,0.072-0.35,0.422-1.404c-6.806-0.85-11.398,1.51-13.694,3.978c-0.039,0.014-0.066,0.023-0.066,0.023
	s0.026-0.008,0.063-0.021c-0.355,0.383-0.66,0.767-0.905,1.144c3.3-0.771,6.949,0.844,6.949,0.844l1.683-0.633l-0.63,0.844
	l3.931,2.316l2.388-0.984c0,0-0.282,0.353-1.194,1.193c0.912,0.562,4.07,3.65,4.07,3.65l2.67-1.193c0,0,0.068,0.422-1.334,1.688
	c0.155,0.023,0.295,0.057,0.424,0.092c0.055,0.016,0.102,0.033,0.151,0.049c0.071,0.025,0.143,0.047,0.205,0.074
	c0.051,0.022,0.097,0.043,0.143,0.065c0.051,0.025,0.101,0.049,0.145,0.074c0.043,0.025,0.082,0.049,0.12,0.074
	c0.036,0.024,0.071,0.047,0.104,0.072c0.033,0.023,0.065,0.049,0.094,0.072c0.027,0.023,0.052,0.045,0.074,0.066
	c0.024,0.023,0.048,0.045,0.066,0.066c0.02,0.019,0.036,0.039,0.051,0.057c0.015,0.018,0.031,0.037,0.042,0.051
	c0.014,0.018,0.023,0.033,0.032,0.047c0.006,0.008,0.015,0.02,0.019,0.025c0.008,0.016,0.015,0.027,0.015,0.027l1.336-0.494
	c0,0,0,0-1.125,1.055c1.034,0.658,2.317,2.602,3.054,3.818c0.047,0.076,0.092,0.15,0.135,0.223c0.035,0.059,0.071,0.119,0.103,0.174
	c0.059,0.098,0.112,0.191,0.157,0.27c0.028,0.049,0.05,0.086,0.072,0.127c0.023,0.041,0.048,0.084,0.064,0.113
	c0.013,0.023,0.027,0.049,0.035,0.064c0.014,0.023,0.031,0.055,0.031,0.055l1.122-0.141c0,0,0,0-0.492,0.703
	c1.183,0.674,2.817,3,3.937,4.752c-0.094-0.084-0.193-0.168-0.295-0.252c-0.007-0.006-0.013-0.012-0.02-0.018
	c-0.181-0.15-0.376-0.299-0.583-0.447c-0.026-0.02-0.053-0.039-0.08-0.057c-0.419-0.297-0.894-0.588-1.43-0.865
	c-0.041-0.021-0.081-0.043-0.122-0.062c-0.269-0.137-0.551-0.27-0.85-0.396c-0.028-0.012-0.059-0.023-0.087-0.035
	c-0.28-0.117-0.576-0.23-0.885-0.34c-0.051-0.018-0.101-0.035-0.152-0.053c-0.326-0.111-0.668-0.217-1.025-0.315
	c-0.031-0.01-0.058-0.02-0.089-0.027c0.006,0.002,0.011,0.006,0.017,0.008c-1.73-0.471-3.836-0.791-6.407-0.842
	c0,1.125,0,1.125,0,1.125l-0.842-0.844c0,0-2.528,0.141-7.442,2.951c0.843,1.402,0.843,1.402,0.843,1.402l-1.684-1.123
	c0,0-4.493,2.527-6.037,3.51c0.28,1.402,0.28,1.402,0.28,1.402l-0.982-0.561c0,0-0.921,0.594-2.083,1.77
	c-0.004,0.006-0.01,0.012-0.014,0.016c-0.271,0.273-0.552,0.578-0.839,0.916c-0.008,0.01-0.017,0.02-0.024,0.029
	c-0.288,0.34-0.579,0.711-0.866,1.113c-0.008,0.01-0.015,0.021-0.021,0.031c-0.289,0.406-0.572,0.844-0.844,1.314
	c-0.005,0.008-0.009,0.018-0.014,0.025c-0.272,0.477-0.532,0.982-0.77,1.525c0.255,0.51,0.284,0.832,0.222,1.039
	c-0.026,0.086-0.068,0.152-0.118,0.203c-0.007,0.008-0.015,0.012-0.022,0.018c-0.044,0.039-0.09,0.068-0.137,0.088
	c-0.014,0.006-0.026,0.012-0.04,0.016c-0.04,0.016-0.078,0.025-0.108,0.031c-0.008,0-0.018,0.004-0.025,0.004
	c-0.027,0.004-0.053,0.006-0.053,0.006S12.498,49.4,16.71,56.841c1.684-4.351,4.426-6.539,4.426-6.539l-0.685-1.465l0.879,0.588
	l2.634-3.609l-0.586-1.172l0.976,0.291l4.587-4.193l-0.587-2.049l1.171,1.367c0,0,1.073-1.076,1.952-1.465c0-0.977,0-0.977,0-0.977
	l0.683,0.586c0,0,3.707-2.732,5.659-3.221c0.195-1.365,0.195-1.365,0.195-1.365l0.487,0.682c0,0,1.717-0.777,3.86-0.883
	c0.082-0.006,0.164-0.008,0.248-0.01c0.284-0.008,0.572-0.006,0.867,0.016c0.488-1.072,0.488-1.072,0.488-1.072l0.293,0.781
	c0,0,0.69-0.016,1.664-0.014c-0.006,0-0.011,0.002-0.016,0.004c-0.117,0.029-0.234,0.064-0.353,0.102
	c-0.058,0.018-0.115,0.035-0.174,0.055c-0.126,0.043-0.254,0.092-0.382,0.143c-0.037,0.014-0.074,0.025-0.112,0.041l0.002,0.002
	c-1.592,0.666-3.273,2-4.699,4.523c0.774,0.086,0.774,0.086,0.774,0.086l-1.291,0.773l0.259,0.602c0,0-2.064,3.957-2.494,6.451
	c1.118,0.26,1.118,0.26,1.118,0.26l-1.032,0.688l0.515,0.086c0,0-0.198,0.109-0.424,0.447h-0.001
	c-0.002,0.004-0.005,0.008-0.007,0.012c-0.102,0.154-0.207,0.357-0.304,0.619c-0.007,0.02-0.013,0.041-0.02,0.058
	c-0.039,0.111-0.074,0.23-0.108,0.361c-0.01,0.039-0.02,0.08-0.029,0.123c-0.031,0.131-0.058,0.271-0.081,0.424
	c-0.006,0.039-0.013,0.074-0.019,0.113c-0.027,0.197-0.048,0.408-0.061,0.641c-0.001,0.025-0.001,0.057-0.002,0.084
	c-0.009,0.203-0.011,0.42-0.007,0.65c0.001,0.074,0.005,0.152,0.008,0.231c0.008,0.205,0.022,0.422,0.042,0.648
	c0.007,0.086,0.013,0.168,0.022,0.258c0.029,0.285,0.067,0.584,0.117,0.904h-0.001c0.006,0.033,0.01,0.062,0.015,0.1
	c0.6,0.086,0.6,0.086,0.6,0.086l-0.771,1.377l0.688,0.258c0,0,0.365,4.963,2.137,9.498c-0.246,1.082-0.396,1.58-0.396,1.58
	L39.014,64.3c0,0-0.837,0.754-1.819,2.41c0.004-0.057,0.009-0.115,0.013-0.172c0.004-0.062,0.011-0.125,0.014-0.188
	c0.018-0.34,0.026-0.672,0.028-0.998c0.001-0.102-0.002-0.199-0.002-0.301c-0.002-0.227-0.006-0.449-0.014-0.666
	c-0.004-0.105-0.008-0.209-0.013-0.312c-0.011-0.217-0.024-0.424-0.04-0.627c-0.006-0.078-0.011-0.158-0.017-0.234
	c-0.023-0.27-0.049-0.527-0.078-0.768c-0.003-0.029-0.007-0.055-0.011-0.084c-0.025-0.211-0.053-0.408-0.08-0.59
	c-0.011-0.072-0.02-0.135-0.031-0.201c-0.011-0.066-0.021-0.141-0.031-0.201c0,0.004,0,0.008,0,0.012
	c-0.115-0.684-0.218-1.098-0.218-1.098h-1.19l0.982-0.492l-1.265-3.16l-0.702-0.209l0.142-0.633l-0.845-2.104l-0.913,0.139
	c0,0,0,0,0.352-1.055c-2.878-4.701-8.704-6.246-8.704-6.246l0.561,3.789h1.054l-0.773,0.844l1.124,4.07l1.335,0.072l-0.984,0.914
	l0.772,2.666l1.053,0.279c0,0-0.005,0.004-0.728,0.662c-0.014,0.014-0.027,0.025-0.044,0.041c1.26,1.889,1.695,5.189,1.835,6.736
	c0.002,0.022,0.003,0.041,0.005,0.061c0.002,0.018,0.003,0.031,0.004,0.049c-1.211-0.93-2.193-1.439-2.193-1.439l0.209-0.844
	l-1.402,0.422c0,0,0,0,0.349-0.771c-0.414-0.277-0.874-0.529-1.36-0.758c0,0,0,0.002-0.001,0.004
	c-0.081-0.039-0.167-0.074-0.25-0.109c-0.161-0.072-0.322-0.145-0.487-0.211c-0.101-0.041-0.203-0.076-0.305-0.115
	c-0.153-0.059-0.307-0.117-0.463-0.172c-0.115-0.041-0.232-0.078-0.347-0.115c-0.145-0.049-0.289-0.096-0.434-0.141
	c-0.128-0.039-0.254-0.076-0.382-0.111c-0.132-0.039-0.263-0.078-0.394-0.113c-0.145-0.039-0.287-0.076-0.431-0.111
	c-0.109-0.027-0.217-0.057-0.324-0.082c-0.166-0.039-0.326-0.076-0.488-0.113c-0.047-0.012-0.097-0.023-0.145-0.033c0,0,0,0-0.001,0
	c-2.136-0.469-3.875-0.627-3.875-0.627l-1.965,1.264c0,0,0.211-0.281,0.491-1.123c-1.686,0-3.368,0.56-3.368,0.56l-0.913,1.545
	l0.14-1.193l-3.721,0.984L6.67,65.056c0,0,0,0-0.14-1.264C3.861,65.757,0.28,70.32,0,74.603c0.773-1.053,3.09-1.826,3.09-1.826
	l0.281-1.824l0.421,1.545l1.194-0.141l0.632-1.965l0.139,1.543l3.581-0.771l0.351-2.949l0.773,2.035l1.685-0.42l0.352-1.545
	l0.28,1.754l3.509,0.281l0.772-1.473l-0.141,1.684l2.387,0.422l1.403-1.965c0,0,0,0-0.35,2.457c0.887,0.104,3.13,0.867,4.223,1.252
	c-0.001,0-0.002,0-0.003,0c0.062,0.021,0.116,0.039,0.171,0.059c-0.125,0.031-0.245,0.064-0.367,0.1l0.049-0.078
	c0,0-0.018-0.004-0.049-0.008c-0.024-0.004-0.061-0.008-0.121-0.018c-0.005,0-0.009,0-0.014-0.002
	c-1.217-0.162-8.947-0.918-16.104,5.012c0.141,0.842,0.141,0.842,0.141,0.842l-1.192,0.141l0.28,0.631L4.704,81.2l0.211,0.492
	c0,0-0.587,0.469-1.272,1.676c-0.088,0.154-0.177,0.324-0.267,0.504c-0.03,0.061-0.061,0.119-0.091,0.184
	c-0.097,0.199-0.193,0.412-0.289,0.644c-0.021,0.051-0.041,0.107-0.062,0.16c-0.084,0.209-0.167,0.434-0.249,0.668
	c-0.022,0.064-0.045,0.127-0.067,0.193c-0.092,0.277-0.181,0.574-0.267,0.887c-0.022,0.08-0.042,0.162-0.063,0.244
	c-0.083,0.318-0.162,0.65-0.235,1.008c-0.005,0.023-0.011,0.045-0.016,0.068c-0.075,0.373-0.142,0.774-0.203,1.186
	c-0.015,0.098-0.028,0.193-0.042,0.291c-0.058,0.422-0.108,0.859-0.148,1.322c-0.007,0.078-0.012,0.158-0.018,0.236
	c-0.035,0.434-0.061,0.885-0.078,1.355c-0.003,0.088-0.008,0.172-0.011,0.262c-0.015,0.52-0.017,1.066-0.008,1.633
	c0.002,0.121,0.005,0.246,0.009,0.371c0.01,0.436,0.028,0.885,0.055,1.35c0.001,0.033,0.001,0.082,0.002,0.113
	c0.009,0.254,0.024,0.389,0.024,0.389s-0.004-0.061-0.008-0.152c0.003,0.053,0.004,0.102,0.008,0.152
	c0.203-0.395,0.405-0.768,0.604-1.129c0.056-0.102,0.111-0.199,0.166-0.297c0.152-0.268,0.303-0.529,0.452-0.779
	c0.051-0.086,0.102-0.174,0.153-0.256c0.391-0.645,0.771-1.227,1.138-1.75c0.046-0.066,0.091-0.127,0.136-0.191
	c0.141-0.197,0.279-0.387,0.414-0.566c0.047-0.062,0.094-0.125,0.14-0.186c0.17-0.221,0.337-0.436,0.499-0.631l0.001-0.002
	c0.163-0.199,0.32-0.383,0.474-0.557c0.048-0.055,0.094-0.105,0.141-0.156c0.104-0.115,0.207-0.227,0.306-0.332
	c0.05-0.053,0.099-0.105,0.147-0.154c0.103-0.105,0.203-0.205,0.3-0.301c0.058-0.055,0.113-0.109,0.168-0.162
	c0.088-0.082,0.174-0.162,0.254-0.236c0.061-0.053,0.117-0.104,0.174-0.152c0.043-0.037,0.086-0.074,0.127-0.109
	c0.062-0.051,0.123-0.102,0.18-0.148c0.014-0.01,0.027-0.021,0.041-0.031c0.064-0.051,0.126-0.1,0.182-0.143H7.812
	C8.159,87.904,8.354,87.8,8.354,87.8l-0.771-1.334l0.912,0.561c0,0,3.368-2.664,4.704-3.158l-0.212-1.545l0.562,0.914l0.421-0.701
	l0.282,0.209l3.153-1.311c-0.229,0.154-0.525,0.363-0.926,0.664c-0.69,2.314-0.734,8.326-0.737,9.08c0,0.051,0,0.078,0,0.078
	l1.053-0.473c0,0,0,0-1.001,2.158c-0.043,1.76,0.758,4.617,1.023,5.508l-0.001,0.002c0.053,0.18,0.086,0.279,0.086,0.279
	l0.896-0.367l-0.633,0.949l0.369,1.684l0.946-0.42c0,0,0,0-0.683,1.053c0.315,2.209,2.264,5.316,2.264,5.316l1.001,0.053
	c0,0,0,0-0.527,0.949c1.052,2.58,6.096,7.766,6.096,7.766c-0.307-1.104-0.736-4.23-0.736-4.23l-0.674-0.184l0.674-0.799l-0.428-0.49
	l0.981,0.184l-0.615-5.889l-1.164-0.488l0.919-0.674l-1.286-0.799l2.146-0.119l0.242-5.705l-0.366-0.676l0.612-0.551l-1.042-0.918
	h1.596l1.532-5.768l-0.674-1.104l0.981,0.305l1.471-3.738l-0.919-1.654l1.837,1.039l1.936-2.666c0.585,1.553,1.693,4.549,2.15,6.168
	c0.157-0.074,0.281-0.131,0.414-0.193c0.006,0.016,0.012,0.033,0.017,0.049c0.049,0.139,0.102,0.291,0.155,0.451
	c0.018,0.049,0.035,0.1,0.053,0.152c0.788,2.326,2.026,6.408,2.026,9.088c0.297-0.092,0.53-0.162,0.738-0.227
	c0.042,0.281,0.09,0.604,0.142,0.971h0.001c0.38,2.67,0.948,7.361,0.805,10.699c0.207,0.021,0.381,0.041,0.547,0.059
	c-0.008,0.412-0.018,0.92-0.034,1.5c-0.086,3.223-0.318,8.588-0.935,11.145c0.239,0.051,0.446,0.094,0.632,0.133l-0.909,11.592
	h0.524l-0.69,2.996c-0.028,0.055-0.048,0.094-0.048,0.094s0-1.754-1.754-4.209c1.054,2.102,0.702,4.281,0.702,4.281
	s-0.422-2.6-2.316-2.949c1.263,0.631,1.965,4.281,1.965,4.281c-0.702-2.176-3.58-2.668-3.58-2.668s3.299,2.668,3.16,4.562
	c-0.772-2.035-2.809-2.385-2.809-2.385s1.545,1.334,1.966,3.721c-0.025-0.062-0.057-0.131-0.093-0.205
	c-0.025-0.051-0.057-0.105-0.087-0.162c-0.014-0.025-0.025-0.049-0.041-0.074c-0.035-0.062-0.076-0.129-0.118-0.193
	c-0.015-0.023-0.027-0.045-0.043-0.068c-0.044-0.068-0.093-0.139-0.143-0.209c-0.018-0.025-0.033-0.049-0.052-0.072
	c-0.051-0.072-0.105-0.143-0.162-0.215c-0.021-0.027-0.042-0.053-0.063-0.08c-0.058-0.07-0.117-0.141-0.18-0.211
	c-0.025-0.029-0.05-0.059-0.076-0.088c-0.063-0.068-0.129-0.137-0.196-0.205c-0.029-0.031-0.059-0.059-0.088-0.088
	c-0.068-0.068-0.139-0.133-0.212-0.197c-0.032-0.029-0.065-0.059-0.099-0.086c-0.074-0.064-0.148-0.125-0.226-0.186
	c-0.036-0.027-0.073-0.053-0.109-0.08c-0.079-0.057-0.159-0.113-0.241-0.168c-0.037-0.023-0.075-0.045-0.112-0.066
	c-0.086-0.053-0.172-0.104-0.262-0.15c-0.035-0.018-0.071-0.033-0.107-0.051c-0.094-0.045-0.188-0.09-0.286-0.129
	c-0.027-0.01-0.055-0.018-0.082-0.027c-0.36-0.129-0.741-0.205-1.14-0.199c-0.013,0-0.025-0.002-0.038-0.002
	c-0.097,0.002-0.195,0.016-0.293,0.029c-0.051,0.006-0.1,0.006-0.15,0.014c0.003,0,0.007,0.002,0.01,0.002
	c-0.189,0.033-0.381,0.078-0.576,0.15c2.752,0,3.947,2.623,4.337,3.76c-1.44,0.066-3.563,0.264-6.262,0.785
	c-5.318,1.031,4.489,0.113,12.27,0.748c7.782,0.635,18.514,1.35,15.895,0.475c-2.621-0.873-1.29-0.822,5.141-0.506
	c5.654,0.281,1.523-1.348-3.495-1.797c1.018-0.492,2.33-0.996,3.285-0.902c-1.33-0.422-2.61-0.305-3.266-0.197
	c0.008-0.09,0.016-0.182,0.023-0.275c0.915-0.672,2.97-2.039,4.609-2.09c-2.597-0.213-4.14,0.279-4.14,0.279
	s1.894-2.107,4.281-2.316c0,0-2.083-0.428-4.478,0.369c0.016-0.244,0.03-0.492,0.044-0.742c1.298-1.27,2.783-2.473,2.783-2.473
	s-1.389-0.084-2.706,0.928c0.013-0.291,0.024-0.582,0.034-0.867c0.884-1.646,1.796-2.936,1.796-2.936s-0.771,0.287-1.761,1.018
	c0.001-0.51-0.009-0.984-0.028-1.41c-0.001-0.014-0.002-0.029-0.002-0.043c-0.008-0.141-0.016-0.275-0.025-0.404
	c0.229-2.176,0.658-6.537,0.765-9.625l0.18-0.014c0,0,0.874-5.666-0.291-10.232h0.001c-0.071-0.277-0.154-0.549-0.24-0.816
	l1.257,0.252c0,0,0.334-3.842-0.3-7.586c0-0.006,0.001-0.012,0.001-0.018c-0.004-0.021-0.011-0.043-0.015-0.064
	c-0.033-0.193-0.07-0.385-0.109-0.576c0.002,0,0.003,0,0.005,0c-0.006-0.029-0.015-0.057-0.021-0.084l0.53-0.057
	c0,0,0-0.002,0.001-0.002l0.97-0.105c0,0-0.069-2.127-0.239-4.537c-0.004-0.059-0.009-0.117-0.014-0.174
	c-0.019-0.264-0.038-0.525-0.059-0.791c-0.008-0.104-0.018-0.205-0.026-0.307c-0.018-0.223-0.037-0.441-0.058-0.662
	c-0.011-0.117-0.022-0.234-0.034-0.352c-0.02-0.203-0.04-0.404-0.062-0.604c-0.013-0.119-0.026-0.236-0.04-0.354
	c-0.021-0.189-0.045-0.373-0.068-0.555c-0.015-0.115-0.029-0.227-0.045-0.336c-0.024-0.18-0.051-0.348-0.078-0.512
	c-0.008-0.051-0.016-0.107-0.023-0.158h0.001c-0.002-0.01-0.003-0.016-0.005-0.025c-0.006-0.037-0.014-0.072-0.02-0.107
	c-0.027-0.156-0.057-0.297-0.085-0.436c-0.015-0.072-0.028-0.152-0.044-0.219c-0.003-0.014-0.006-0.025-0.009-0.039
	c-0.016-0.066-0.032-0.121-0.048-0.182l0.147-0.059l0.924-0.369c0,0-0.007-0.281-0.02-0.736c0.37,0.248,0.764,0.529,1.178,0.855
	c0.049,0.039,0.1,0.082,0.149,0.123c0.161,0.129,0.323,0.262,0.489,0.404c0.079,0.066,0.159,0.141,0.239,0.211
	c0.14,0.123,0.281,0.25,0.424,0.383c0.091,0.086,0.183,0.176,0.274,0.264c0.137,0.133,0.273,0.27,0.412,0.41
	c0.095,0.096,0.189,0.195,0.285,0.295c0.141,0.15,0.281,0.305,0.422,0.463c0.093,0.104,0.186,0.207,0.278,0.314
	c0.153,0.18,0.308,0.367,0.461,0.557c0.081,0.1,0.161,0.195,0.241,0.297c0.233,0.299,0.466,0.607,0.697,0.934
	c0.562-0.772,0.562-0.772,0.562-0.772l0.209,0.772c0,0,1.756-0.42,2.81,2.668c0,0,1.825-4.352,0.281-10.949
	c-0.773,0.139-0.773,0.139-0.773,0.139l0.141-1.051c0,0-0.033-0.047-0.092-0.125c-0.006-0.01-0.013-0.018-0.02-0.027
	c-0.028-0.039-0.061-0.082-0.099-0.133c-0.002-0.004-0.005-0.006-0.007-0.01c-0.509-0.682-1.799-2.354-2.522-2.797
	c-0.56,0.701-0.56,0.701-0.56,0.701v-1.191c0,0-3.02-2.809-4.004-3.512c-0.278,0.914-0.631,1.264-0.631,1.264l0.141-1.895
	l-1.242-0.535c-0.045-1.52-0.168-3.818-0.497-6.189c0.086,0.023,0.17,0.047,0.247,0.072c0.58-0.947,0.58-1.156,0.58-1.156v1.051
	c0,0,1.61,0.328,3.427,1.062c0.132,0.053,0.266,0.109,0.399,0.168c0.072,0.031,0.146,0.062,0.219,0.096
	c0.127,0.057,0.254,0.115,0.381,0.176c0.083,0.041,0.166,0.082,0.25,0.123c0.117,0.059,0.233,0.119,0.35,0.182
	c0.093,0.049,0.185,0.102,0.275,0.154c0.105,0.061,0.211,0.119,0.314,0.184c0.1,0.061,0.197,0.125,0.294,0.188
	c0.093,0.061,0.186,0.121,0.274,0.184c0.107,0.076,0.208,0.154,0.311,0.234c0.074,0.057,0.151,0.111,0.223,0.172
	c0.115,0.096,0.223,0.195,0.329,0.297c0.053,0.049,0.108,0.096,0.159,0.146c0.152,0.154,0.297,0.312,0.428,0.479
	c-0.104-1.262-0.263-1.736-0.263-1.736s1.423,2.369,1.527,3.055c0,0,0.18-0.973,0.033-2.479c0.038,0.133,0.055,0.213,0.055,0.213
	s-0.017-0.086-0.058-0.236c-0.215-2.172-1.115-5.449-4.243-8.609c-1.053,0.211-1.053,0.211-1.053,0.211l0.264-0.631
	c0,0-0.024-0.018-0.062-0.045c-0.01-0.006-0.015-0.01-0.026-0.019c-0.041-0.027-0.097-0.066-0.166-0.113
	c-0.019-0.014-0.033-0.023-0.055-0.037c-0.079-0.055-0.172-0.115-0.279-0.186c-0.018-0.012-0.03-0.02-0.049-0.033
	c-0.114-0.072-0.242-0.154-0.382-0.242c-0.022-0.014-0.039-0.025-0.062-0.039c0.001,0.002,0.001,0.002,0.002,0.004
	c-1.095-0.68-2.887-1.674-4.747-2.221c-0.324-2.004-0.76-4.402-1.295-6.734c-0.001-0.006-0.002-0.014-0.003-0.021
	c-0.006-0.025-0.014-0.051-0.02-0.076c-0.067-0.293-0.138-0.582-0.208-0.871c0.001-0.002,0.002-0.002,0.003-0.002
	c-0.017-0.074-0.038-0.144-0.057-0.217c-0.03-0.123-0.06-0.248-0.091-0.371l0.144-0.105c0-0.002,0-0.002,0-0.002l0.506-0.381
	c0,0-0.543-1.609-1.255-3.607c0-0.002-0.001-0.004-0.001-0.006c-0.152-0.426-0.313-0.871-0.478-1.322
	c-0.074-0.203-0.148-0.408-0.225-0.613c-0.032-0.088-0.066-0.176-0.098-0.264c-0.093-0.25-0.185-0.496-0.277-0.742
	c-0.03-0.08-0.06-0.158-0.09-0.236c-0.095-0.25-0.188-0.494-0.281-0.734c-0.03-0.076-0.06-0.152-0.089-0.229
	c-0.092-0.233-0.182-0.459-0.269-0.678c-0.031-0.076-0.061-0.152-0.091-0.225c-0.085-0.209-0.168-0.404-0.249-0.596
	c-0.013-0.031-0.027-0.066-0.04-0.098c-0.003-0.006-0.005-0.012-0.008-0.018c-0.014-0.033-0.028-0.064-0.042-0.098
	c-0.078-0.182-0.152-0.346-0.226-0.504c-0.011-0.023-0.023-0.051-0.033-0.074l0.6-0.266l-0.794-1.486
	c0.22,0.107,0.418,0.193,0.578,0.236c0.844-1.475,0.844-1.475,0.844-1.475l-0.106,1.895l1.368,1.369l1.157-1.262l-0.519,1.561
	c0,0,2.674,3.055,4.022,5.195c0.068,0.107,0.129,0.209,0.189,0.312c0.035,0.059,0.072,0.119,0.104,0.176
	c0.086,0.152,0.164,0.299,0.229,0.433c0.788-0.455,1.062-0.576,1.062-0.576l-0.336,0.941c0,0,1.304,2.217,1.969,3.734
	c0.093,0.211,0.173,0.408,0.235,0.584c0.004,0.012,0.007,0.02,0.01,0.031c0.062,0.174,0.106,0.33,0.126,0.451
	c1.509-0.912,2.107-1.086,2.107-1.086l-0.704,1.51c0,0,4.283,3.264,4.81,7.09c0,0,0.004-0.025,0.01-0.066
	c0.002-0.014,0.004-0.031,0.007-0.051c0.006-0.041,0.012-0.086,0.02-0.148c0.005-0.033,0.009-0.068,0.014-0.109
	c0.008-0.064,0.016-0.137,0.024-0.219c0.005-0.055,0.011-0.107,0.017-0.168c0.009-0.088,0.017-0.184,0.025-0.285
	c0.006-0.068,0.012-0.133,0.018-0.209c0.009-0.129,0.018-0.271,0.026-0.418c0.004-0.062,0.008-0.117,0.011-0.184
	c0.012-0.213,0.021-0.441,0.027-0.684C73,58.501,73,58.409,73.002,58.324c0.004-0.172,0.006-0.344,0.006-0.527
	c0.001-0.117-0.001-0.238-0.002-0.359c-0.002-0.17-0.005-0.34-0.01-0.519c-0.003-0.137-0.008-0.275-0.014-0.416
	c-0.007-0.178-0.016-0.361-0.026-0.547c-0.009-0.15-0.017-0.301-0.027-0.457c-0.014-0.197-0.032-0.4-0.05-0.605
	c-0.014-0.154-0.025-0.303-0.041-0.461c-0.033-0.322-0.072-0.654-0.118-0.992c-0.023-0.176-0.052-0.355-0.078-0.533
	c-0.035-0.234-0.07-0.469-0.112-0.709c-0.032-0.191-0.071-0.387-0.108-0.582c-0.04-0.211-0.081-0.422-0.127-0.637
	c-0.044-0.209-0.093-0.418-0.142-0.629c-0.025-0.107-0.045-0.209-0.071-0.316c-0.003-0.002-0.006-0.006-0.009-0.008
	c-0.281-1.154-0.635-2.35-1.097-3.57c-0.845-0.211-0.845-0.211-0.845-0.211l0.211-0.635c0,0-1.192-3.859-3.649-6.455
	c-0.983,0.068-0.983,0.068-0.983,0.068l0.209-0.984c0,0-0.166-0.195-0.433-0.506c-0.905-1.057-2.978-3.475-3.569-4.121l-1.209,0.469
	v-0.766c0,0-0.344-0.234-1.009-0.498c-0.003,0-0.006-0.002-0.009-0.002c-0.156-0.062-0.334-0.125-0.525-0.188
	c-0.043-0.014-0.086-0.027-0.131-0.041c-0.025-0.008-0.049-0.016-0.075-0.024c0.003-0.002,0.005-0.006,0.008-0.01
	c0.01-0.012,0.018-0.024,0.029-0.037c0.162-0.199,0.349-0.416,0.558-0.633c0,0-0.001,0-0.001-0.002
	c0.651-0.678,1.524-1.383,2.577-1.748c-0.211-1.685-0.211-1.685-0.211-1.685l1.054,1.156c0,0,0.143-0.111,0.376-0.287
	c0.754-0.564,2.474-1.787,3.52-2.029c-0.316-1.475-0.316-1.475-0.316-1.475l0.948,0.738c0,0,2.316-0.945,3.685-1.158
	c0.316-1.475,0.316-1.475,0.316-1.475l0.315,0.844c0,0,0.402-0.193,1.069-0.424c0.139-0.047,0.294-0.098,0.455-0.146
	c0.072-0.021,0.147-0.045,0.225-0.066c0.117-0.035,0.241-0.068,0.368-0.101c0.088-0.021,0.175-0.045,0.267-0.068
	c0.198-0.047,0.405-0.092,0.621-0.133c0.091-0.018,0.187-0.031,0.28-0.047c0.149-0.025,0.302-0.049,0.458-0.07
	c0.107-0.014,0.217-0.027,0.327-0.039c0.173-0.017,0.35-0.031,0.528-0.041c0.09-0.006,0.179-0.014,0.27-0.017
	c0.258-0.008,0.52-0.008,0.785,0.004c0.093,0.004,0.188,0.012,0.281,0.019c0.199,0.014,0.4,0.033,0.603,0.061
	c0.095,0.012,0.188,0.025,0.284,0.041c0.288,0.047,0.576,0.105,0.865,0.185c0,0-0.008-0.018-0.021-0.043
	C79.477,23.865,79.472,23.857,79.464,23.843z M48.79,19.355c0,0,0.004-0.004,0.266-0.299c0.002,0.098,0.005,0.199,0.008,0.299H48.79
	z M34.268,75.074c0.023-0.201,0.029-0.396,0.034-0.592l0.167,0.262c0.003-0.004,0.005-0.008,0.008-0.012
	c-0.012,0.074-0.025,0.145-0.036,0.221c-0.049,0.072-0.101,0.146-0.144,0.223L34.268,75.074z M34.546,76.001
	c-0.002,0.002-0.004,0.006-0.006,0.008l-0.151-0.52l0.221,0.432C34.588,75.949,34.568,75.972,34.546,76.001z M59.679,98.161
	l0.002,0.004l-0.003-0.002L59.679,98.161z M51.33,31.523c0.098,0.283,0.173,0.51,0.227,0.68c0.032,0.1,0.061,0.197,0.094,0.297
	l-0.274-0.514c0,0-0.023,0.023-0.058,0.057c-0.016,0.014-0.021,0.019-0.045,0.043c-0.008,0.008-0.012,0.012-0.019,0.02
	C51.279,31.911,51.31,31.714,51.33,31.523z M43.285,57.593l-0.517-0.771l0.775,0.258l0.513-1.537h-0.001l0.947-2.85l-0.687-0.344
	l1.463-0.771l0.946-2.064l-0.86-0.773l1.548,0.514l3.009-6.621l-0.858-1.461l1.375,1.031l0.206-0.393
	c0.213,0.717,0.401,1.387,0.527,1.91c0.15-0.07,0.268-0.127,0.394-0.188c0.659,2.148,1.976,6.828,1.919,9.777
	c0.278-0.086,0.498-0.154,0.693-0.213c0.012,0.094,0.024,0.191,0.036,0.297c0.179,1.49,0.443,3.975,0.583,6.514
	c-0.567,0.023-1.148,0.062-1.646,0.127c-0.789,1.213-0.789,1.213-0.789,1.213l-0.263-1c0,0-4.265,0.053-7.268,1.158
	c-0.841,1.262-1.051,1.525-1.051,1.525l-0.213-1.367c0,0-1.724,0.895-3.219,1.656C42.188,58.497,43.285,57.593,43.285,57.593z
	 M45.742,140.595c0.027-0.035,0.051-0.053,0.061-0.027c0.002,0.006,0.005,0.018,0.007,0.025
	C45.787,140.595,45.765,140.595,45.742,140.595z M49.653,139.122l-0.001-0.01c-0.004-0.033-0.01-0.072-0.016-0.111l0.024-0.035
	c0.003,0.129,0.006,0.238,0.007,0.307C49.665,139.236,49.661,139.189,49.653,139.122z M54.77,89.581
	c-0.001,0.07-0.003,0.143-0.005,0.219c-0.002,0.082-0.005,0.168-0.007,0.258c-0.076,2.271-0.415,6.158-1.799,8.383
	c0.477,0.047,0.869,0.086,1.203,0.117c-0.005,0.064-0.01,0.139-0.016,0.215c-0.004,0.051-0.007,0.098-0.012,0.156
	c-0.012,0.141-0.025,0.299-0.041,0.469c-0.164,1.713-0.597,4.754-1.69,6.771c0.376,0.084,0.695,0.156,0.975,0.219
	c-0.069,0.356-0.156,0.795-0.26,1.293h0.001c-0.572,2.766-1.638,7.351-2.793,9.447c0.322,0.094,0.604,0.174,0.85,0.246l-0.247,0.957
	c0.001,0,0.001,0,0.001,0l-2.705,10.533l0.118,0.016l-0.17,0.621c-0.118-2.016-0.317-4.941-0.573-7.139c0,0,0.001,0,0.002-0.002
	c-0.041-0.354-0.084-0.68-0.129-0.986c0-0.008-0.001-0.014-0.002-0.02c-0.015-0.098-0.028-0.201-0.043-0.293l0.38-0.127
	c0,0-0.058-6.74-1.592-11.74c-0.081-0.268-0.164-0.533-0.255-0.789l0.583,0.033c0,0-0.874-5.951-2.355-11.494
	c-0.001-0.008-0.003-0.02-0.004-0.027c-0.016-0.057-0.032-0.113-0.048-0.172c-0.07-0.258-0.143-0.512-0.215-0.768
	c0,0,0.001-0.002,0.002-0.002c-0.013-0.045-0.026-0.086-0.039-0.131c-0.006-0.017-0.011-0.037-0.016-0.055
	c-0.029-0.102-0.058-0.203-0.087-0.305c-0.009-0.031-0.018-0.062-0.026-0.094l0.684-0.5c0,0-0.613-1.6-1.416-3.584
	c-0.001-0.004-0.001-0.006-0.001-0.006c-0.19-0.471-0.392-0.963-0.598-1.457c-0.059-0.142-0.116-0.283-0.176-0.424
	c-0.055-0.133-0.109-0.262-0.165-0.395c-0.086-0.203-0.17-0.404-0.256-0.605c-0.049-0.115-0.098-0.229-0.146-0.342
	c-0.089-0.205-0.176-0.408-0.264-0.607c-0.05-0.113-0.099-0.225-0.148-0.336c-0.083-0.189-0.166-0.373-0.247-0.553
	c-0.051-0.111-0.101-0.223-0.15-0.33c-0.079-0.17-0.155-0.332-0.23-0.49c-0.046-0.098-0.093-0.197-0.138-0.289
	c-0.08-0.162-0.154-0.309-0.229-0.453c-0.017-0.033-0.035-0.072-0.052-0.104l0.635-0.275l-2.848-4.771l1.445,0.629l0.98-2.246
	l0.631,1.896l2.527,0.631l0.354-2.037l0.561,1.688l5.195,2.525l0.912-1.545l0.21,1.334l1.757,0.281l0.699-1.334l0.071,1.475
	l1.328,0.951l-0.473,5.072l0.566,0.01C54.774,89.32,54.772,89.447,54.77,89.581z M55.438,72.001l-2.341-0.459L51.6,72.421
	l0.43-0.975c0,0-3.021-0.5-5.541-0.475c-1.164,0.973-1.164,0.973-1.164,0.973l0.164-1.021c0,0-1.027,0.068-2.46,0.293
	c-0.11,0.016-0.223,0.035-0.337,0.053c-0.112,0.02-0.222,0.037-0.338,0.059c-0.242,0.043-0.49,0.088-0.745,0.141
	c-0.052,0.01-0.104,0.021-0.157,0.033c-0.231,0.047-0.466,0.1-0.703,0.154c-0.073,0.018-0.145,0.035-0.218,0.053
	c-0.581,0.141-1.171,0.307-1.751,0.5c-0.062,0.021-0.125,0.043-0.188,0.064c-0.254,0.088-0.503,0.18-0.749,0.279
	c-0.04,0.016-0.081,0.031-0.121,0.047c-0.175,0.072-0.345,0.148-0.513,0.227c0.062-0.037,0.116-0.072,0.181-0.109
	c0.06-0.033,0.125-0.066,0.187-0.1c0.214-0.117,0.438-0.232,0.672-0.346c1.849-0.891,4.363-1.637,7.559-1.547
	c0.018-0.197,0.03-0.332,0.036-0.424h-0.001c0.008-0.096,0.013-0.145,0.015-0.174c-0.002,0.029-0.006,0.076-0.014,0.174
	c0.05,0.006,0.099,0.014,0.146,0.02l0.292,0.51l3.633-0.156l-0.052-1.162l0.579,0.844c0,0,1.271-0.217,2.751-0.398
	c0.694-0.055,1.651-0.131,2.41-0.182C55.556,70.505,55.501,71.257,55.438,72.001z"/>
<g>
</g>
<g>
</g>
<g>
</g>
<g>
</g>
<g>
</g>
<g>
</g>
</svg>
